<svg width="1200" height="360" viewBox="0 0 1200 360" fill="none" xmlns="http://www.w3.org/2000/svg" role="img" aria-labelledby="title desc">
  <title id="title">Aleksandr Shuvalov GitHub profile header</title>
  <desc id="desc">A clean dark technical banner with code-inspired grid, accent lines, and Aleksandr Shuvalov name.</desc>
  <rect width="1200" height="360" fill="#0B1020"/>
  <path d="M0 260C122 214 238 214 348 260C481 316 604 315 735 245C869 174 1019 144 1200 180V360H0V260Z" fill="#0E6245" fill-opacity="0.34"/>
  <path d="M0 96C126 129 247 130 363 100C499 65 637 49 781 75C930 102 1062 97 1200 56V0H0V96Z" fill="#1F6FEB" fill-opacity="0.28"/>
  <g opacity="0.2">
    <path d="M80 0V360" stroke="#FFFFFF"/>
    <path d="M160 0V360" stroke="#FFFFFF"/>
    <path d="M240 0V360" stroke="#FFFFFF"/>
    <path d="M320 0V360" stroke="#FFFFFF"/>
    <path d="M400 0V360" stroke="#FFFFFF"/>
    <path d="M480 0V360" stroke="#FFFFFF"/>
    <path d="M560 0V360" stroke="#FFFFFF"/>
    <path d="M640 0V360" stroke="#FFFFFF"/>
    <path d="M720 0V360" stroke="#FFFFFF"/>
    <path d="M800 0V360" stroke="#FFFFFF"/>
    <path d="M880 0V360" stroke="#FFFFFF"/>
    <path d="M960 0V360" stroke="#FFFFFF"/>
    <path d="M1040 0V360" stroke="#FFFFFF"/>
    <path d="M1120 0V360" stroke="#FFFFFF"/>
    <path d="M0 60H1200" stroke="#FFFFFF"/>
    <path d="M0 120H1200" stroke="#FFFFFF"/>
    <path d="M0 180H1200" stroke="#FFFFFF"/>
    <path d="M0 240H1200" stroke="#FFFFFF"/>
    <path d="M0 300H1200" stroke="#FFFFFF"/>
  </g>
  <g opacity="0.78">
    <rect x="812" y="96" width="278" height="168" rx="18" fill="#0F172A" stroke="#2F81F7"/>
    <circle cx="844" cy="128" r="7" fill="#FF7B72"/>
    <circle cx="868" cy="128" r="7" fill="#D29922"/>
    <circle cx="892" cy="128" r="7" fill="#3FB950"/>
    <path d="M846 169H1046" stroke="#94A3B8" stroke-width="8" stroke-linecap="round"/>
    <path d="M846 201H997" stroke="#3FB950" stroke-width="8" stroke-linecap="round"/>
    <path d="M846 233H1030" stroke="#58A6FF" stroke-width="8" stroke-linecap="round"/>
  </g>
  <g>
    <text x="92" y="148" fill="#F8FAFC" font-family="Inter, Arial, sans-serif" font-size="54" font-weight="800" letter-spacing="0">Aleksandr Shuvalov</text>
    <text x="96" y="202" fill="#C9D1D9" font-family="Inter, Arial, sans-serif" font-size="24" font-weight="500" letter-spacing="0">AI products · data workflows · automation · internal tools</text>
    <rect x="96" y="236" width="132" height="6" rx="3" fill="#3FB950"/>
    <rect x="242" y="236" width="78" height="6" rx="3" fill="#58A6FF"/>
    <rect x="334" y="236" width="48" height="6" rx="3" fill="#F778BA"/>
  </g>
</svg>
